<mxfile host="Electron" modified="2023-11-15T12:59:45.020Z" agent="Mozilla/5.0 (Windows NT 10.0; Win64; x64) AppleWebKit/537.36 (KHTML, like Gecko) draw.io/22.0.2 Chrome/114.0.5735.289 Electron/25.8.4 Safari/537.36" etag="ZiA4ZqPoisyqGjotXyah" version="22.0.2" type="device">
  <diagram name="Side-1" id="VPAXlXGCMpFleYxpEKAI">
    <mxGraphModel dx="2074" dy="1196" grid="1" gridSize="10" guides="1" tooltips="1" connect="1" arrows="1" fold="1" page="1" pageScale="1" pageWidth="4681" pageHeight="3300" math="0" shadow="0">
      <root>
        <mxCell id="0" />
        <mxCell id="1" parent="0" />
        <mxCell id="zYyftUIiXW8p-CfqqhrT-1" value="&lt;font style=&quot;font-size: 18px;&quot;&gt;&lt;b&gt;SERVER&lt;/b&gt;&lt;/font&gt;" style="rounded=1;whiteSpace=wrap;html=1;fillColor=#f8cecc;strokeColor=#b85450;" vertex="1" parent="1">
          <mxGeometry x="1113" y="260" width="190" height="60" as="geometry" />
        </mxCell>
        <mxCell id="zYyftUIiXW8p-CfqqhrT-3" value="&lt;font style=&quot;font-size: 18px;&quot;&gt;&lt;b&gt;CLIENT 2&lt;/b&gt;&lt;/font&gt;" style="rounded=1;whiteSpace=wrap;html=1;fillColor=#fff2cc;strokeColor=#d6b656;" vertex="1" parent="1">
          <mxGeometry x="1240" y="920" width="120" height="60" as="geometry" />
        </mxCell>
        <mxCell id="zYyftUIiXW8p-CfqqhrT-36" style="edgeStyle=orthogonalEdgeStyle;rounded=0;orthogonalLoop=1;jettySize=auto;html=1;exitX=0.5;exitY=0;exitDx=0;exitDy=0;" edge="1" parent="1" source="zYyftUIiXW8p-CfqqhrT-4" target="zYyftUIiXW8p-CfqqhrT-35">
          <mxGeometry relative="1" as="geometry" />
        </mxCell>
        <mxCell id="zYyftUIiXW8p-CfqqhrT-4" value="&lt;font style=&quot;font-size: 14px;&quot;&gt;SERVER&lt;br&gt;EXCHANGE&lt;/font&gt;" style="ellipse;whiteSpace=wrap;html=1;aspect=fixed;fillColor=#dae8fc;strokeColor=#6c8ebf;" vertex="1" parent="1">
          <mxGeometry x="820" y="600" width="110" height="110" as="geometry" />
        </mxCell>
        <mxCell id="zYyftUIiXW8p-CfqqhrT-5" value="&lt;font style=&quot;font-size: 14px;&quot;&gt;SERVER&lt;br&gt;EXCHANGE&lt;/font&gt;" style="ellipse;whiteSpace=wrap;html=1;aspect=fixed;fillColor=#dae8fc;strokeColor=#6c8ebf;" vertex="1" parent="1">
          <mxGeometry x="1160" y="510" width="110" height="110" as="geometry" />
        </mxCell>
        <mxCell id="zYyftUIiXW8p-CfqqhrT-17" value="Consume" style="edgeStyle=orthogonalEdgeStyle;rounded=0;orthogonalLoop=1;jettySize=auto;html=1;exitX=1;exitY=0.5;exitDx=0;exitDy=0;exitPerimeter=0;entryX=0.5;entryY=0;entryDx=0;entryDy=0;shape=flexArrow;fillColor=#f5f5f5;strokeColor=#666666;labelBackgroundColor=none;" edge="1" parent="1" source="zYyftUIiXW8p-CfqqhrT-7" target="zYyftUIiXW8p-CfqqhrT-3">
          <mxGeometry relative="1" as="geometry" />
        </mxCell>
        <mxCell id="zYyftUIiXW8p-CfqqhrT-7" value="" style="outlineConnect=0;dashed=0;verticalLabelPosition=bottom;verticalAlign=top;align=center;html=1;shape=mxgraph.aws3.queue;fillColor=#D9A741;gradientColor=none;rotation=90;" vertex="1" parent="1">
          <mxGeometry x="1273.25" y="790" width="53.5" height="30" as="geometry" />
        </mxCell>
        <mxCell id="zYyftUIiXW8p-CfqqhrT-39" style="edgeStyle=orthogonalEdgeStyle;rounded=0;orthogonalLoop=1;jettySize=auto;html=1;exitX=1;exitY=0.5;exitDx=-2.7;exitDy=0;exitPerimeter=0;entryX=0.5;entryY=0;entryDx=0;entryDy=0;curved=1;" edge="1" parent="1" source="zYyftUIiXW8p-CfqqhrT-9" target="zYyftUIiXW8p-CfqqhrT-5">
          <mxGeometry relative="1" as="geometry" />
        </mxCell>
        <mxCell id="zYyftUIiXW8p-CfqqhrT-9" value="" style="strokeWidth=1;outlineConnect=0;dashed=0;align=center;html=1;fontSize=8;shape=mxgraph.eip.messageChannel;verticalLabelPosition=bottom;labelBackgroundColor=#ffffff;verticalAlign=top;rotation=90;" vertex="1" parent="1">
          <mxGeometry x="1168" y="431" width="80" height="30" as="geometry" />
        </mxCell>
        <mxCell id="zYyftUIiXW8p-CfqqhrT-10" value="Publish" style="edgeStyle=orthogonalEdgeStyle;rounded=0;orthogonalLoop=1;jettySize=auto;html=1;entryX=0;entryY=0.5;entryDx=2.7;entryDy=0;entryPerimeter=0;shape=flexArrow;fillColor=#f5f5f5;strokeColor=#666666;labelBackgroundColor=none;" edge="1" parent="1" target="zYyftUIiXW8p-CfqqhrT-9">
          <mxGeometry x="-0.0051" relative="1" as="geometry">
            <mxPoint x="1208" y="320" as="sourcePoint" />
            <mxPoint as="offset" />
          </mxGeometry>
        </mxCell>
        <mxCell id="zYyftUIiXW8p-CfqqhrT-16" style="edgeStyle=orthogonalEdgeStyle;rounded=0;orthogonalLoop=1;jettySize=auto;html=1;exitX=1;exitY=0.5;exitDx=-2.7;exitDy=0;exitPerimeter=0;" edge="1" parent="1" source="zYyftUIiXW8p-CfqqhrT-14" target="zYyftUIiXW8p-CfqqhrT-7">
          <mxGeometry relative="1" as="geometry" />
        </mxCell>
        <mxCell id="zYyftUIiXW8p-CfqqhrT-14" value="" style="strokeWidth=1;outlineConnect=0;dashed=0;align=center;html=1;fontSize=8;shape=mxgraph.eip.messageChannel;verticalLabelPosition=bottom;labelBackgroundColor=#ffffff;verticalAlign=top;rotation=90;" vertex="1" parent="1">
          <mxGeometry x="1260" y="690" width="80" height="30" as="geometry" />
        </mxCell>
        <mxCell id="zYyftUIiXW8p-CfqqhrT-15" style="edgeStyle=orthogonalEdgeStyle;rounded=0;orthogonalLoop=1;jettySize=auto;html=1;exitX=0.5;exitY=1;exitDx=0;exitDy=0;entryX=0;entryY=0.5;entryDx=2.7;entryDy=0;entryPerimeter=0;" edge="1" parent="1" source="zYyftUIiXW8p-CfqqhrT-5" target="zYyftUIiXW8p-CfqqhrT-14">
          <mxGeometry relative="1" as="geometry" />
        </mxCell>
        <mxCell id="zYyftUIiXW8p-CfqqhrT-18" value="&lt;font style=&quot;font-size: 18px;&quot;&gt;&lt;b&gt;CLIENT 1&lt;/b&gt;&lt;/font&gt;" style="rounded=1;whiteSpace=wrap;html=1;fillColor=#fff2cc;strokeColor=#d6b656;" vertex="1" parent="1">
          <mxGeometry x="1080" y="920" width="120" height="60" as="geometry" />
        </mxCell>
        <mxCell id="zYyftUIiXW8p-CfqqhrT-19" value="Consume" style="edgeStyle=orthogonalEdgeStyle;rounded=0;orthogonalLoop=1;jettySize=auto;html=1;exitX=1;exitY=0.5;exitDx=0;exitDy=0;exitPerimeter=0;entryX=0.5;entryY=0;entryDx=0;entryDy=0;shape=flexArrow;fillColor=#f5f5f5;strokeColor=#666666;labelBackgroundColor=none;" edge="1" parent="1" source="zYyftUIiXW8p-CfqqhrT-20" target="zYyftUIiXW8p-CfqqhrT-18">
          <mxGeometry relative="1" as="geometry" />
        </mxCell>
        <mxCell id="zYyftUIiXW8p-CfqqhrT-20" value="" style="outlineConnect=0;dashed=0;verticalLabelPosition=bottom;verticalAlign=top;align=center;html=1;shape=mxgraph.aws3.queue;fillColor=#D9A741;gradientColor=none;rotation=90;" vertex="1" parent="1">
          <mxGeometry x="1113.25" y="790" width="53.5" height="30" as="geometry" />
        </mxCell>
        <mxCell id="zYyftUIiXW8p-CfqqhrT-21" style="edgeStyle=orthogonalEdgeStyle;rounded=0;orthogonalLoop=1;jettySize=auto;html=1;exitX=1;exitY=0.5;exitDx=-2.7;exitDy=0;exitPerimeter=0;" edge="1" parent="1" source="zYyftUIiXW8p-CfqqhrT-22" target="zYyftUIiXW8p-CfqqhrT-20">
          <mxGeometry relative="1" as="geometry" />
        </mxCell>
        <mxCell id="zYyftUIiXW8p-CfqqhrT-22" value="" style="strokeWidth=1;outlineConnect=0;dashed=0;align=center;html=1;fontSize=8;shape=mxgraph.eip.messageChannel;verticalLabelPosition=bottom;labelBackgroundColor=#ffffff;verticalAlign=top;rotation=90;" vertex="1" parent="1">
          <mxGeometry x="1100" y="690" width="80" height="30" as="geometry" />
        </mxCell>
        <mxCell id="zYyftUIiXW8p-CfqqhrT-23" style="edgeStyle=orthogonalEdgeStyle;rounded=0;orthogonalLoop=1;jettySize=auto;html=1;exitX=0.5;exitY=1;exitDx=0;exitDy=0;entryX=0;entryY=0.5;entryDx=2.7;entryDy=0;entryPerimeter=0;" edge="1" parent="1" source="zYyftUIiXW8p-CfqqhrT-5" target="zYyftUIiXW8p-CfqqhrT-22">
          <mxGeometry relative="1" as="geometry" />
        </mxCell>
        <mxCell id="zYyftUIiXW8p-CfqqhrT-32" style="edgeStyle=orthogonalEdgeStyle;rounded=0;orthogonalLoop=1;jettySize=auto;html=1;exitX=1;exitY=0.5;exitDx=-2.7;exitDy=0;exitPerimeter=0;entryX=0;entryY=1;entryDx=0;entryDy=0;curved=1;" edge="1" parent="1" source="zYyftUIiXW8p-CfqqhrT-24" target="zYyftUIiXW8p-CfqqhrT-4">
          <mxGeometry relative="1" as="geometry" />
        </mxCell>
        <mxCell id="zYyftUIiXW8p-CfqqhrT-24" value="" style="strokeWidth=1;outlineConnect=0;dashed=0;align=center;html=1;fontSize=8;shape=mxgraph.eip.messageChannel;verticalLabelPosition=bottom;labelBackgroundColor=#ffffff;verticalAlign=top;rotation=-90;" vertex="1" parent="1">
          <mxGeometry x="790" y="830" width="80" height="30" as="geometry" />
        </mxCell>
        <mxCell id="zYyftUIiXW8p-CfqqhrT-33" style="edgeStyle=orthogonalEdgeStyle;rounded=0;orthogonalLoop=1;jettySize=auto;html=1;exitX=1;exitY=0.5;exitDx=-2.7;exitDy=0;exitPerimeter=0;entryX=1;entryY=1;entryDx=0;entryDy=0;curved=1;" edge="1" parent="1" source="zYyftUIiXW8p-CfqqhrT-26" target="zYyftUIiXW8p-CfqqhrT-4">
          <mxGeometry relative="1" as="geometry" />
        </mxCell>
        <mxCell id="zYyftUIiXW8p-CfqqhrT-26" value="" style="strokeWidth=1;outlineConnect=0;dashed=0;align=center;html=1;fontSize=8;shape=mxgraph.eip.messageChannel;verticalLabelPosition=bottom;labelBackgroundColor=#ffffff;verticalAlign=top;rotation=-90;" vertex="1" parent="1">
          <mxGeometry x="878.25" y="830" width="80" height="30" as="geometry" />
        </mxCell>
        <mxCell id="zYyftUIiXW8p-CfqqhrT-27" value="Publish" style="edgeStyle=orthogonalEdgeStyle;rounded=0;orthogonalLoop=1;jettySize=auto;html=1;exitX=0.5;exitY=1;exitDx=0;exitDy=0;entryX=0;entryY=0.5;entryDx=2.7;entryDy=0;entryPerimeter=0;shape=flexArrow;fillColor=#f5f5f5;strokeColor=#666666;labelBackgroundColor=none;" edge="1" parent="1" source="zYyftUIiXW8p-CfqqhrT-3" target="zYyftUIiXW8p-CfqqhrT-24">
          <mxGeometry relative="1" as="geometry" />
        </mxCell>
        <mxCell id="zYyftUIiXW8p-CfqqhrT-28" value="Publish" style="edgeStyle=orthogonalEdgeStyle;rounded=0;orthogonalLoop=1;jettySize=auto;html=1;exitX=0;exitY=0.5;exitDx=0;exitDy=0;entryX=0;entryY=0.5;entryDx=2.7;entryDy=0;entryPerimeter=0;shape=flexArrow;fillColor=#f5f5f5;strokeColor=#666666;labelBackgroundColor=none;" edge="1" parent="1" source="zYyftUIiXW8p-CfqqhrT-18" target="zYyftUIiXW8p-CfqqhrT-26">
          <mxGeometry relative="1" as="geometry" />
        </mxCell>
        <mxCell id="zYyftUIiXW8p-CfqqhrT-38" value="Consume" style="edgeStyle=orthogonalEdgeStyle;rounded=0;orthogonalLoop=1;jettySize=auto;html=1;exitX=1;exitY=0.5;exitDx=0;exitDy=0;exitPerimeter=0;entryX=0;entryY=0.5;entryDx=0;entryDy=0;shape=flexArrow;fillColor=#f5f5f5;strokeColor=#666666;labelBackgroundColor=none;" edge="1" parent="1" source="zYyftUIiXW8p-CfqqhrT-34" target="zYyftUIiXW8p-CfqqhrT-1">
          <mxGeometry relative="1" as="geometry" />
        </mxCell>
        <mxCell id="zYyftUIiXW8p-CfqqhrT-34" value="" style="outlineConnect=0;dashed=0;verticalLabelPosition=bottom;verticalAlign=top;align=center;html=1;shape=mxgraph.aws3.queue;fillColor=#D9A741;gradientColor=none;rotation=-90;" vertex="1" parent="1">
          <mxGeometry x="848.25" y="360" width="53.5" height="30" as="geometry" />
        </mxCell>
        <mxCell id="zYyftUIiXW8p-CfqqhrT-37" style="edgeStyle=orthogonalEdgeStyle;rounded=0;orthogonalLoop=1;jettySize=auto;html=1;exitX=1;exitY=0.5;exitDx=-2.7;exitDy=0;exitPerimeter=0;" edge="1" parent="1" source="zYyftUIiXW8p-CfqqhrT-35" target="zYyftUIiXW8p-CfqqhrT-34">
          <mxGeometry relative="1" as="geometry" />
        </mxCell>
        <mxCell id="zYyftUIiXW8p-CfqqhrT-35" value="" style="strokeWidth=1;outlineConnect=0;dashed=0;align=center;html=1;fontSize=8;shape=mxgraph.eip.messageChannel;verticalLabelPosition=bottom;labelBackgroundColor=#ffffff;verticalAlign=top;rotation=-90;" vertex="1" parent="1">
          <mxGeometry x="835" y="470" width="80" height="30" as="geometry" />
        </mxCell>
      </root>
    </mxGraphModel>
  </diagram>
</mxfile>
